ply
format ascii 1.0
element vertex 40
property float x
property float y
property float z
property uchar red
property uchar green
property uchar blue
end_header
0.0287762 -0.00646925 5.31677 140 104 57
-0.264458 -0.504233 5.83208 188 170 131
-0.223302 -0.2238 5.52557 147 105 40
0.218923 0.173728 5.43853 255 245 172
0.618737 0.21278 5.38972 101 66 28
-0.399517 -0.605755 5.82067 175 163 124
-0.399517 -0.605755 5.82067 175 163 124
-0.147567 0.0107495 5.33297 225 199 164
0.355004 0.0646374 5.33705 241 207 144
0.602478 -0.40137 5.66478 11 3 0
0.602478 -0.40137 5.66478 11 3 0
0.781054 0.325075 5.41776 205 175 135
-0.0672552 0.155139 3.41302 234 184 117
0.757649 0.0657423 5.26105 58 35 6
-0.136307 0.0210748 5.33272 16 6 0
0.620143 0.235782 5.39407 130 91 42
0.654926 -0.0725419 5.2822 172 148 111
0.654926 -0.0725419 5.2822 172 148 111
0.27649 -0.187172 5.53676 133 94 39
0.27649 -0.187172 5.53676 133 94 39
-0.159333 -0.226443 5.53225 162 117 52
-0.159333 -0.226443 5.53225 162 117 52
0.228155 -0.239957 5.54644 159 119 58
0.773035 0.00902084 5.14764 233 210 154
0.481978 -0.0879602 5.33289 128 102 54
0.489883 0.028434 5.31136 216 183 137
0.637211 0.194358 5.37862 239 202 147
0.619775 0.0575568 5.32945 117 82 34
0.665844 0.183168 5.35403 192 158 118
0.662577 0.105686 5.31542 177 146 107
-0.297338 -0.175095 5.50255 195 154 95
0.756276 0.0054477 5.1649 99 81 40
0.257447 0.237475 5.41974 197 147 91
0.58275 0.226373 5.39251 241 199 135
0.803441 0.281827 5.39871 126 91 44
0.749247 0.29987 5.41044 218 179 128
0.663307 0.307526 5.40618 124 101 73
-0.0750042 -0.215514 5.53 255 210 131
0.762637 0.321446 5.41576 115 83 36
0.762637 0.321446 5.41576 115 83 36
