ply
format ascii 1.0
element vertex 47
property float x
property float y
property float z
property uchar red
property uchar green
property uchar blue
end_header
0.484233 -0.22815 3.29445 154 136 103
0.451589 -0.292195 3.35314 204 178 128
0.386575 -0.222529 3.37432 206 180 118
0.504525 -0.16328 3.22796 153 135 101
0.505066 -0.163429 3.22993 153 135 101
0.316975 -0.0105462 3.19751 29 16 1
0.00836111 -0.168271 3.41817 211 172 115
0.355773 -0.0259055 3.19723 46 24 1
-0.230705 -0.0372675 3.31613 55 30 17
-0.350655 -0.283035 3.38683 246 215 147
-0.0970196 -0.177694 3.43759 216 182 130
0.0238719 -0.175187 3.41692 59 30 0
0.0431375 -0.200847 3.43522 207 173 114
-0.175373 -0.246655 3.47989 11 5 2
-0.294913 -0.386156 3.51765 42 32 23
-0.25699 -0.339041 3.50592 40 31 20
0.107507 0.0109606 3.25223 126 106 76
0.3521 -0.0976951 3.2757 38 14 0
0.306682 -0.0290267 3.20597 46 26 3
-0.216717 -0.295349 3.50107 30 25 18
0.279483 -0.0056467 3.18632 39 19 2
0.403383 -0.220123 3.36369 198 168 111
-0.00821675 -0.168964 3.43051 34 16 0
0.0330989 -0.167319 3.41466 214 188 137
-0.379747 -0.106983 3.22049 242 210 153
0.189602 -0.00259943 3.20485 25 11 0
-0.0878024 -0.184971 3.43823 80 48 4
0.0765952 -0.167328 3.41194 63 48 30
0.140281 -0.0146506 3.24649 152 125 93
0.0768322 -0.151059 3.41739 127 103 73
0.456807 0.0639553 3.59338 166 144 118
0.491168 -0.111117 3.2308 135 114 88
0.389635 -0.2553 3.35356 6 3 3
0.45675 -0.24439 3.40392 179 155 104
0.393178 -0.138309 3.29734 216 185 132
0.224794 0.0107106 3.18882 254 223 168
0.264803 0.011605 3.18211 236 205 154
0.237066 -0.139244 3.33981 220 189 129
0.0427295 -0.161964 3.41404 70 40 1
-0.00172127 0.012474 3.28083 123 105 77
0.339974 -0.29267 3.4167 4 1 2
0.41203 -0.0832854 3.17166 195 167 117
0.46942 -0.211446 3.30575 54 39 20
0.0663563 0.0189225 3.26348 49 35 10
0.397631 0.0165987 3.22945 73 52 25
0.349725 -0.0106318 3.19586 61 40 21
0.500226 -0.0329868 3.17314 176 152 105
