ply
format ascii 1.0
element vertex 129
property float x
property float y
property float z
property uchar red
property uchar green
property uchar blue
end_header
0.214778 -0.524134 9.51679 255 255 207
1.39059 -0.484347 8.45622 188 158 96
-0.985158 -0.0194044 11.634 250 216 163
0.823578 -0.462475 9.07732 188 165 130
0.799429 -0.462122 9.09412 185 160 121
1.26094 -0.608207 8.58493 17 11 1
-1.07045 -1.09727 9.64846 255 246 172
-0.306289 -0.490448 10.0129 178 153 112
1.41477 -0.247797 8.53163 19 11 1
0.0736741 -0.600222 9.55254 9 3 0
-0.910858 0.0147219 11.7627 38 24 11
0.804379 -0.426776 9.11859 36 17 1
-0.73171 -0.781718 10.0957 247 221 159
-0.839622 -0.900099 9.93653 242 212 145
0.841826 0.0307763 9.16165 45 24 1
0.546164 -0.394666 9.22538 213 187 126
-0.713429 -0.579995 10.4447 65 39 15
1.42547 -0.456542 8.43828 203 175 124
0.398789 -0.525506 9.3869 196 157 93
0.123519 -0.550326 9.52528 215 179 108
-0.689852 -0.678329 10.2891 238 197 127
0.981968 -0.57104 9.00539 213 181 117
0.51815 -0.592998 9.23768 30 13 0
0.636773 -0.596142 9.154 22 6 0
0.295646 0.101936 9.8002 25 13 3
-0.892658 -0.0767339 11.5225 56 30 5
0.951641 0.00782741 9.08412 239 200 136
0.852546 -0.00410903 9.12898 233 200 137
0.973377 -0.167933 9.13109 198 161 113
1.02523 -0.192605 9.00606 218 185 137
0.853828 -0.204721 9.14611 50 21 0
0.684312 -0.0188695 9.31373 113 74 30
1.33 -0.347498 8.64795 160 143 108
0.0436049 -0.465998 9.66854 71 45 12
0.985299 -0.48074 9.00792 207 182 129
1.09533 0.0473679 8.96046 213 189 145
1.27488 -0.491864 8.70157 152 130 94
0.512722 -0.553351 9.26055 255 241 178
1.24387 -0.542451 8.67655 161 139 105
1.07498 -0.623919 8.89158 176 155 114
0.879812 0.0539329 9.16356 230 202 152
0.741832 0.0225349 9.27228 58 32 0
0.336469 0.00143166 9.61478 250 216 164
0.727479 -0.0207633 9.25233 57 28 0
-0.708008 -0.116794 11.0108 152 114 63
1.02706 -0.142583 9.07087 229 194 144
-0.609612 -0.353848 11.6253 84 45 5
1.01266 -0.351628 9.02478 91 58 13
-0.388981 -0.501457 10.0954 218 185 122
-1.12293 -0.741475 10.5195 157 116 56
0.336705 0.130926 9.81463 132 107 79
0.313602 0.0521107 9.69934 212 175 126
-1.00288 -0.200015 11.4753 122 74 30
0.659619 -0.567565 9.1962 250 228 162
0.906859 -0.1097 9.12031 131 94 47
-0.901027 -0.243091 11.1511 122 84 40
0.775136 -0.120432 9.15252 141 107 57
0.915599 -0.177287 9.14479 230 193 133
0.0614792 -0.563565 9.61706 223 188 124
0.335893 -0.417597 9.49153 175 146 99
-0.0648318 -0.454243 9.79607 214 175 120
-0.418993 -0.489584 10.1714 63 35 1
-0.168773 -0.46913 9.88176 215 193 150
-0.360267 -0.518493 10.0313 77 44 2
-0.256131 -0.481003 9.97133 207 178 129
-0.0634602 0.115869 10.3447 120 103 84
0.745683 -0.470948 9.14224 80 50 13
0.973272 0.0816349 9.14788 66 46 24
-0.0305077 -0.0528587 9.98766 161 119 69
1.21455 0.020274 8.91395 92 61 26
0.138664 -0.408547 9.72954 117 94 68
0.75505 -0.553483 9.12839 113 83 30
1.29537 -0.00122619 8.89536 124 92 48
0.984626 -0.669642 8.91095 6 2 0
0.736572 0.158346 9.29834 230 198 153
0.991734 -0.0699628 9.09075 144 108 59
0.764973 -0.319729 9.16201 226 196 143
1.36314 -0.0601345 8.84485 41 21 1
0.74319 -0.302483 9.20399 121 86 40
1.0291 -0.101724 9.11652 232 193 140
0.757713 -0.485925 9.1187 181 156 118
0.763753 -0.278958 9.18457 230 197 138
0.632213 0.150733 9.41822 250 214 152
-1.18354 -0.393854 11.4886 161 117 64
0.747737 -0.202368 9.23714 113 79 35
0.403979 -0.490481 9.36965 95 67 21
-0.0517305 0.135987 10.3666 48 33 11
1.29771 0.0398724 8.89295 90 66 32
0.79938 -0.146871 9.14631 241 204 148
1.34153 -0.161719 8.81479 120 103 77
-1.36323 -0.368102 11.8864 188 148 93
1.31922 -0.169959 8.88834 40 18 0
1.03698 -0.320678 9.02604 212 179 125
-0.888507 -0.430778 10.8499 144 101 43
0.779454 -0.297233 9.16592 149 114 62
1.02265 -0.035816 9.01361 220 181 127
1.18975 -0.574096 8.77577 59 42 17
1.11278 -0.533281 8.55161 186 158 104
1.21324 -0.519611 8.81322 49 34 14
-0.851841 -0.163726 11.2553 248 203 157
1.23179 -0.0352095 8.92741 96 64 20
-0.0437603 -0.504999 9.68499 182 153 94
1.02936 -0.562317 8.96774 199 168 109
-0.117403 -0.514145 9.74207 154 125 77
1.28116 -0.300303 8.82813 118 99 75
1.19815 0.0208055 8.92937 101 67 26
-0.706396 -0.615824 10.3531 247 209 145
-0.37385 -0.531409 10.0187 101 71 35
0.866162 -0.420871 9.12358 163 130 77
0.602521 -0.335793 9.29316 217 184 125
-0.730737 -0.506089 10.71 62 36 11
-1.07193 0.00262138 11.9708 209 174 125
0.749553 0.132896 9.28644 97 68 25
0.807227 -0.232093 9.17188 241 207 148
1.31607 -0.702811 8.46869 183 160 113
0.764715 -0.194834 9.18483 104 72 36
1.17886 0.0608509 8.94394 192 159 106
1.25474 -0.722703 8.51534 227 210 157
-1.17763 -0.0843639 11.9635 249 216 160
-1.56954 -0.209933 12.9166 250 205 145
1.25695 -0.00185014 8.89331 208 174 120
1.16985 -0.00795098 8.93778 216 178 126
-1.24447 -0.538061 11.196 160 117 56
0.801978 -0.225672 9.11858 230 196 140
-0.723423 -0.650195 10.3306 163 122 67
0.401586 -0.459471 9.38432 184 157 103
1.01259 -0.502709 9.00784 96 67 27
0.164353 -0.51512 9.50409 166 131 67
1.24883 0.0677807 8.90587 196 167 118
