ply
format ascii 1.0
element vertex 42
property float x
property float y
property float z
property uchar red
property uchar green
property uchar blue
end_header
-0.885198 -0.202549 10.7056 255 220 153
-0.885198 -0.202549 10.7056 255 220 153
-0.492745 -1.1427 10.6779 8 2 1
0.63961 -1.03669 10.7121 164 143 88
0.63961 -1.03669 10.7121 164 143 88
0.16453 -0.398905 10.5273 247 204 132
0.786038 0.0790705 9.82402 130 95 61
1.38066 0.521177 10.2967 18 6 2
0.943976 0.332525 10.2707 119 82 50
0.881639 0.332086 10.2953 125 86 57
0.293794 0.246361 10.6958 255 246 170
-0.360839 -0.0422286 10.4247 218 186 147
1.12932 0.506192 10.3909 130 106 80
0.265499 -0.558069 10.3934 159 127 69
1.30081 0.48081 10.2892 120 84 35
1.30081 0.48081 10.2892 120 84 35
0.96979 0.363052 10.2851 243 202 138
0.442978 -1.09676 10.8199 4 0 0
1.0837 0.47998 10.4393 200 159 111
1.61929 0.292247 9.7781 167 142 118
1.29946 0.150942 9.24672 233 210 163
0.37573 -0.417531 10.3867 138 98 43
0.37573 -0.417531 10.3867 138 98 43
0.380738 -1.00609 10.9063 186 160 99
0.361553 -0.143182 9.87881 255 237 170
1.21352 -0.0454088 9.04049 240 210 147
-0.0680756 -0.591251 10.5575 216 180 117
1.11596 -0.0795684 9.14614 225 190 129
0.990336 0.0423569 9.72135 138 107 57
0.248833 -0.536902 10.3901 255 235 172
0.248833 -0.536902 10.3901 255 235 172
1.56536 -0.0465936 9.70112 165 128 75
1.03971 0.378904 10.2887 137 98 49
1.1635 0.47494 10.406 85 61 32
1.43813 0.52119 10.2723 7 0 0
0.778072 0.420575 10.4886 142 102 54
1.30934 0.580949 10.4284 15 4 7
1.10709 0.29764 10.0423 193 159 115
1.37484 0.460341 10.2436 129 94 44
1.03868 0.155329 9.87658 221 184 132
1.35375 0.0519353 12.9472 207 177 121
1.01403 0.0403658 9.67067 207 177 121
