ply
format ascii 1.0
element vertex 36
property float x
property float y
property float z
property uchar red
property uchar green
property uchar blue
end_header
0.0675992 -0.175265 3.48705 16 3 0
-0.133598 -0.142285 3.54826 112 79 33
0.19813 0.124735 3.4819 18 8 0
-0.108409 -0.122646 3.55526 196 167 122
0.31834 0.092973 3.43191 51 27 7
-0.398888 -0.0642313 3.65373 143 98 44
-0.398888 -0.0642313 3.65373 143 98 44
0.422707 -0.213346 3.30122 203 177 118
0.385486 -0.00175767 3.39622 217 182 128
0.366252 -0.124466 3.38041 211 178 117
-0.146907 -0.146454 3.54976 254 223 166
-0.0946889 -0.150028 3.52488 126 94 55
0.400166 -0.180895 3.34688 182 161 116
-0.458071 0.0581699 3.75992 244 206 144
0.280827 0.0877084 3.44775 76 44 2
0.132029 0.0780932 3.50238 240 205 155
0.274862 0.0698092 3.44577 73 40 6
-0.127841 -0.132138 3.55655 81 49 2
0.305147 -0.114574 3.39527 206 177 135
0.122723 -0.103016 3.47954 197 169 113
0.0246793 -0.18142 3.49779 9 3 0
-0.467935 -0.0835488 3.68456 73 48 27
0.30043 0.0200152 3.42149 235 197 137
0.150194 -0.135477 3.45119 234 203 146
0.372807 0.0500397 3.41011 126 88 41
0.386675 -0.117004 3.37444 175 148 100
0.278714 0.0798847 3.44374 205 172 131
0.275407 -0.120562 3.40991 85 57 15
0.403725 0.000482372 3.38235 184 151 104
-0.290642 -0.0662514 3.63996 157 114 57
-0.290642 -0.0662514 3.63996 157 114 57
0.496752 -0.00613946 3.34818 140 113 88
0.387568 -0.0580093 3.3925 212 179 123
0.000753746 -0.128434 3.49916 216 184 129
0.3203 -0.101005 3.40487 174 138 81
0.506411 0.0185093 3.34987 120 98 74
