ply
format ascii 1.0
element vertex 35
property float x
property float y
property float z
property uchar red
property uchar green
property uchar blue
end_header
-0.152488 0.432655 7.19159 108 79 44
-0.203442 -0.361458 7.08445 66 34 0
0.953743 0.138667 7.01823 12 5 5
-0.462596 -0.208038 6.68423 35 17 2
1.12523 0.0742904 7.08461 159 137 106
-0.162788 0.0845845 7.07978 67 44 15
-0.257582 0.442092 7.09166 60 37 9
-0.331121 0.373491 7.106 77 48 19
-0.408335 0.207448 6.87781 200 166 123
0.210792 -0.254004 6.70268 161 140 102
0.0931112 -0.383891 7.08374 79 53 7
-0.256437 0.387773 7.10723 197 163 119
0.375258 0.0405153 7.07877 165 137 98
0.364457 0.025424 7.08502 60 34 11
0.364457 0.025424 7.08502 60 34 11
-0.0770153 0.435496 7.12526 54 31 4
-0.0770153 0.435496 7.12526 54 31 4
-0.0770153 0.435496 7.12526 54 31 4
1.12086 -0.0840843 7.035 173 144 89
1.03174 -0.368575 6.67462 157 137 92
1.12575 -0.0172775 7.04462 179 153 114
-0.693407 0.0819353 6.55319 34 18 2
0.370103 0.00862877 7.09314 143 117 85
-0.157227 0.0446861 7.07343 61 38 2
-0.282545 0.0545838 7.06283 187 154 106
-0.693407 0.0819353 6.55319 34 18 2
-0.306408 0.0490164 7.0585 88 54 13
1.19575 -0.270537 6.80271 145 126 100
0.40191 -0.217595 6.61551 37 21 0
0.40191 -0.217595 6.61551 37 21 0
0.388958 0.0546399 7.07926 72 48 15
0.272741 -0.212365 6.66089 108 91 67
0.275115 -0.188036 6.64992 130 111 79
0.836452 0.112712 7.0363 82 59 24
0.836452 0.112712 7.0363 82 59 24
