ply
format ascii 1.0
element vertex 39
property float x
property float y
property float z
property uchar red
property uchar green
property uchar blue
end_header
1.02048 -0.258564 9.98199 41 30 15
1.69183 -0.700561 10.1345 16 8 0
-0.542419 -0.738279 11.4738 31 25 21
-1.02399 0.65366 10.9732 165 135 95
-1.02399 0.65366 10.9732 165 135 95
1.30378 -0.340517 9.83091 50 38 23
1.30378 -0.340517 9.83091 50 38 23
0.870893 -0.739749 11.1222 20 10 6
1.4935 -0.947879 11.1074 199 178 126
-0.21525 -0.646815 11.2427 210 178 125
1.32309 -0.744321 10.961 201 174 123
-0.646726 0.914939 11.568 160 135 103
1.16534 0.640438 11.4349 156 137 112
-0.621038 0.359905 11.0254 203 171 125
0.843623 0.260012 11.1718 158 136 108
-0.990562 -0.425837 10.1438 222 188 138
-0.069708 0.688172 11.6058 51 31 4
-0.069708 0.688172 11.6058 51 31 4
-0.069708 0.688172 11.6058 51 31 4
0.632581 0.0512928 11.1754 60 35 7
0.632581 0.0512928 11.1754 60 35 7
0.661131 0.0450175 11.1685 54 31 5
0.661131 0.0450175 11.1685 54 31 5
-0.590216 0.260578 11.1278 185 156 120
0.641207 0.0238533 11.182 147 121 84
1.31231 -0.205034 9.8933 36 24 3
1.73621 -0.769147 10.1717 146 130 90
1.26212 -0.53888 10.513 226 195 143
0.703903 -0.677193 10.993 192 167 111
1.5094 -0.713373 10.7358 133 112 79
1.7315 0.190178 11.0317 3 0 0
0.976233 0.627174 11.4442 159 129 88
-1.07501 0.210317 10.2764 30 17 7
-1.07501 0.210317 10.2764 30 17 7
1.35286 -0.212533 9.8528 165 147 105
-0.88484 -0.396769 10.1108 135 107 62
-0.526636 0.883062 11.6927 126 107 87
0.610874 0.0266749 11.1992 147 119 81
0.293318 0.573176 11.6152 66 36 8
