ply
format ascii 1.0
element vertex 15
property float x
property float y
property float z
property uchar red
property uchar green
property uchar blue
end_header
0.344665 0.179411 3.7084 148 116 75
0.581455 -0.0706709 3.48942 5 3 3
-0.256275 -0.324649 3.74908 32 24 19
0.559914 0.0330545 3.64628 171 147 116
0.0853222 -0.104855 3.4328 162 139 98
-0.210572 0.107612 3.60662 203 171 125
0.194251 0.0125072 3.65339 169 142 101
-0.179292 0.13986 3.73463 183 164 139
0.0507822 -0.228498 3.64215 19 6 0
0.57809 -0.0174246 3.61873 177 151 111
0.580048 -0.0906744 3.48336 168 150 112
0.294732 0.186669 3.71727 159 129 88
-0.362685 0.0654283 3.44221 30 17 7
-0.346798 -0.150607 3.39499 101 73 32
0.0783022 0.169497 3.74583 66 36 8
