ply
format ascii 1.0
element vertex 47
property float x
property float y
property float z
property uchar red
property uchar green
property uchar blue
end_header
0.46863 -0.220785 3.11128 154 136 103
0.433693 -0.278079 3.15277 204 178 128
0.374179 -0.210873 3.18072 206 180 118
0.492257 -0.162279 3.06404 153 135 101
0.492672 -0.162269 3.06518 153 135 101
0.317522 -0.0136738 3.06494 29 16 1
0.0125546 -0.152867 3.24865 211 172 115
0.354556 -0.0290409 3.06012 46 24 1
-0.219829 -0.0299184 3.21421 55 30 17
-0.341175 -0.262044 3.25299 246 215 147
-0.0897097 -0.16003 3.27267 216 182 130
0.0273576 -0.159508 3.24492 59 30 0
0.0452882 -0.183309 3.25481 207 173 114
-0.16688 -0.223067 3.30598 11 5 2
-0.284825 -0.351365 3.32898 42 32 23
-0.247495 -0.308241 3.32289 40 31 20
0.113854 0.011947 3.1272 126 106 76
0.347327 -0.0955335 3.11741 38 14 0
0.306842 -0.0312027 3.0715 46 26 3
-0.207745 -0.267945 3.32161 30 25 18
0.281298 -0.00849733 3.05819 39 19 2
0.390501 -0.209327 3.1718 198 168 111
-0.00345182 -0.153101 3.26076 34 16 0
0.0364818 -0.152202 3.24303 214 188 137
-0.373255 -0.102601 3.16182 242 210 153
0.193769 -0.00380138 3.08136 25 11 0
-0.0809426 -0.167153 3.27223 80 48 4
0.0784721 -0.152878 3.23748 63 48 30
0.145041 -0.0133109 3.11671 152 125 93
0.0791723 -0.13726 3.24347 127 103 73
0.447404 0.0663057 3.36763 166 144 118
0.48148 -0.112201 3.07177 135 114 88
0.376123 -0.242445 3.16033 6 3 3
0.439635 -0.231451 3.1979 179 155 104
0.384931 -0.13406 3.12759 216 185 132
0.228684 0.00798666 3.06738 254 223 168
0.267714 0.00815657 3.05823 236 205 154
0.2343 -0.131084 3.17177 220 189 129
0.0459381 -0.147343 3.2427 70 40 1
0.00705252 0.0154505 3.16202 123 105 77
0.326525 -0.274324 3.2096 4 1 2
0.407403 -0.0861263 3.03148 195 167 117
0.454888 -0.204248 3.12234 54 39 20
0.0738633 0.0205076 3.14091 49 35 10
0.396248 0.0119579 3.08776 73 52 25
0.349434 -0.014531 3.06229 61 40 21
0.494704 -0.0393805 3.03233 176 152 105
