ply
format ascii 1.0
element vertex 31
property float x
property float y
property float z
property uchar red
property uchar green
property uchar blue
end_header
-0.073326 0.0145709 6.99351 146 114 74
0.000182341 -0.431936 7.45961 120 91 44
0.843916 0.114749 6.54203 11 4 2
0.972489 -0.167654 6.04545 8 3 3
1.01425 -0.219457 6.13623 158 131 84
0.321838 0.476429 7.14349 175 143 99
-0.371227 0.34129 7.6767 191 157 115
-0.371227 0.34129 7.6767 191 157 115
-0.432196 -0.133917 7.2042 33 27 18
-0.501212 -0.536658 6.86804 224 204 162
-0.377021 0.399219 7.72495 64 37 12
0.270706 -0.0149756 6.68227 148 121 80
1.04861 -0.357479 6.0699 5 0 0
-0.445966 0.338979 7.78495 179 146 108
-0.159661 0.0316725 7.02823 105 75 33
-0.897146 -0.0963664 7.56191 29 16 8
0.0618397 0.0585036 6.88118 72 47 21
-0.342636 0.396929 7.66352 178 144 102
-0.342636 0.396929 7.66352 178 144 102
0.707064 -0.248311 5.95465 37 23 3
0.363495 0.343943 6.95737 51 33 18
0.199926 -0.248914 6.11793 128 109 74
0.316435 -0.272909 6.03145 32 17 1
0.316435 -0.272909 6.03145 32 17 1
1.0466 -0.354985 6.07885 9 2 0
0.66702 -0.239964 6.00036 69 49 18
0.66702 -0.239964 6.00036 69 49 18
-0.411329 0.394038 7.76696 172 145 113
0.291468 0.394633 7.03584 74 50 16
0.546844 -0.20446 6.04064 147 128 96
0.318408 0.360531 6.9969 130 103 69
