ply
format ascii 1.0
element vertex 129
property float x
property float y
property float z
property uchar red
property uchar green
property uchar blue
end_header
0.0180105 -0.011757 0.979579 255 255 207
0.172903 -0.0169365 0.974757 188 158 96
-0.113865 0.0750036 1.08178 250 216 163
0.0935726 -0.00789333 0.987233 188 165 130
0.0904651 -0.00766182 0.987402 185 160 121
0.151093 -0.0334034 0.954068 17 11 1
-0.116307 -0.0780733 0.883357 255 246 172
-0.0414768 -0.00164989 0.989463 178 153 112
0.181732 0.0197944 1.02318 19 11 1
0.00182948 -0.0213344 0.966277 9 3 0
-0.105703 0.079117 1.09026 38 24 11
0.091288 -0.00242472 0.994341 36 17 1
-0.0835117 -0.036411 0.941525 247 221 159
-0.0938599 -0.0520837 0.919822 242 212 145
0.101968 0.0686478 1.08568 45 24 1
0.0591045 0.00331231 0.999659 213 187 126
-0.0828529 -0.0079461 0.978821 65 39 15
0.178564 -0.013057 0.979976 203 175 124
0.0399627 -0.013412 0.978499 196 157 93
0.00744538 -0.015095 0.974464 215 179 108
-0.0796404 -0.0218098 0.961228 238 197 127
0.11208 -0.0237948 0.968013 213 181 117
0.0544499 -0.0241898 0.965034 30 13 0
0.0689976 -0.0255384 0.963757 22 6 0
0.0271197 0.0827401 1.10186 25 13 3
-0.103777 0.0660224 1.07255 56 30 5
0.117151 0.0644118 1.08104 239 200 136
0.10321 0.0627277 1.07791 233 200 137
0.116302 0.0361983 1.04566 198 161 113
0.124084 0.0316169 1.03911 218 185 137
0.100192 0.030677 1.0373 50 21 0
0.0791245 0.0610894 1.07548 113 74 30
0.16552 0.00514874 1.00477 160 143 108
-0.00220897 -0.00221494 0.990695 71 45 12
0.113903 -0.0112492 0.984111 207 182 129
0.139091 0.0706944 1.08962 213 189 145
0.153881 -0.0157657 0.978075 152 130 94
0.0539095 -0.0185593 0.97219 255 241 178
0.149144 -0.0231783 0.967922 161 139 105
0.123767 -0.0322251 0.957074 176 155 114
0.107394 0.0724776 1.09118 230 202 152
0.0875035 0.0677674 1.08419 58 32 0
0.0328111 0.0660591 1.07952 250 216 164
0.0852672 0.0605456 1.0747 57 28 0
-0.0866412 0.0575366 1.06228 152 114 63
0.124468 0.0398493 1.05033 229 194 144
-0.0694636 0.0274124 1.03428 84 45 5
0.119327 0.00758722 1.00847 91 58 13
-0.0503168 -0.00213275 0.988311 218 185 122
-0.122207 -0.0243748 0.951053 157 116 56
0.0323274 0.0874637 1.10852 132 107 79
0.0296862 0.0744569 1.09063 212 175 126
-0.113269 0.050175 1.05021 122 74 30
0.0716623 -0.0212984 0.969819 250 228 162
0.108776 0.0454077 1.05648 131 94 47
-0.104179 0.0421978 1.04046 122 84 40
0.0911499 0.044005 1.05329 141 107 57
0.108547 0.0348779 1.04337 230 193 133
0.000256849 -0.0158211 0.973518 223 188 124
0.0323776 0.00242742 0.998687 175 146 99
-0.0147691 0.000728456 0.993974 214 175 120
-0.0535154 0.000148816 0.991317 63 35 1
-0.0264448 -0.000313132 0.991998 215 193 150
-0.0471423 -0.00503243 0.984673 77 44 2
-0.0360434 -0.000859565 0.990752 207 178 129
-0.0179601 0.0869538 1.10588 120 103 84
0.0833837 -0.00846012 0.986321 80 50 13
0.120654 0.077054 1.09816 66 46 24
-0.0130867 0.059799 1.06936 161 119 69
0.155463 0.065803 1.08447 92 61 26
0.00858036 0.00590579 1.00274 117 94 68
0.0837372 -0.0200681 0.97164 113 83 30
0.166255 0.0620664 1.08045 124 92 48
0.111853 -0.0381523 0.948879 6 2 0
0.0882696 0.0908023 1.11389 230 198 153
0.120964 0.0516199 1.06517 144 108 59
0.0873073 0.0135098 1.01455 226 196 143
0.174677 0.0519449 1.06772 41 21 1
0.0844239 0.0163721 1.01836 121 86 40
0.124942 0.0465229 1.05947 232 193 140
0.0848789 -0.010781 0.983275 181 156 118
0.0874429 0.0197653 1.02265 230 197 138
0.0731804 0.0898714 1.11213 250 214 152
-0.127611 0.0268155 1.01763 161 117 64
0.0858599 0.0316703 1.03818 113 79 35
0.0407585 -0.00879763 0.984215 95 67 21
-0.0166682 0.0900568 1.11026 48 33 11
0.167789 0.0690709 1.0895 90 66 32
0.0940031 0.0398032 1.04813 241 204 148
0.169355 0.0352515 1.04553 120 103 77
-0.142527 0.0341222 1.02403 188 148 93
0.164912 0.0343215 1.04491 40 18 0
0.122944 0.0121539 1.01462 212 179 125
-0.101434 0.0155754 1.00648 144 101 43
0.0893582 0.0168878 1.019 149 114 62
0.126721 0.0568912 1.07151 220 181 127
0.140285 -0.0266654 0.964144 59 42 17
0.134465 -0.0230364 0.96521 186 158 104
0.143874 -0.0186504 0.974999 49 34 14
-0.0997102 0.0529106 1.05555 248 203 157
0.156152 0.056541 1.07279 96 64 20
-0.0120933 -0.00712521 0.98351 182 153 94
0.118405 -0.0229949 0.969135 199 168 109
-0.0204267 -0.00765444 0.982339 154 125 77
0.157481 0.0137109 1.01721 118 99 75
0.152989 0.0659915 1.08459 101 67 26
-0.0820429 -0.0132625 0.971679 247 209 145
-0.048544 -0.00677169 0.982189 101 71 35
0.0989232 -0.00162378 0.996176 163 130 77
0.0660077 0.0122761 1.01235 217 184 125
-0.0843591 0.00359419 0.994766 62 36 11
-0.120615 0.0795842 1.0875 209 174 125
0.0897998 0.0863662 1.1083 97 68 25
0.093636 0.0267568 1.03186 241 207 148
0.157474 -0.047735 0.934971 183 160 113
0.0885846 0.0326225 1.03886 104 72 36
0.151125 0.0728198 1.09346 192 159 106
0.148697 -0.0498895 0.932239 227 210 157
-0.129655 0.0690233 1.07144 249 216 160
-0.155998 0.0597526 1.05641 250 205 145
0.161017 0.0619685 1.07983 208 174 120
0.14828 0.0611878 1.07809 216 178 126
-0.133206 0.00749531 0.99076 160 117 56
0.0935503 0.0273637 1.03212 230 196 140
-0.0834279 -0.0177784 0.965902 163 122 67
0.0405159 -0.00433915 0.989859 184 157 103
0.116898 -0.0143723 0.980455 96 67 27
0.0121544 -0.0105659 0.980321 166 131 67
0.161605 0.0740096 1.09528 196 167 118
