ply
format ascii 1.0
element vertex 22
property float x
property float y
property float z
property uchar red
property uchar green
property uchar blue
end_header
0.386236 -0.0429051 3.50544 46 24 1
-0.316514 -0.110121 3.98044 97 65 37
-0.148408 -0.216884 3.8627 216 182 130
-0.00516403 -0.205774 3.77704 59 30 0
-0.344507 -0.0853355 3.94701 233 201 151
-0.296501 0.0514902 4.50303 210 177 133
-0.459099 -0.323578 3.89581 114 77 33
-0.242546 -0.292086 3.89718 11 5 2
-0.207702 0.0777459 4.65256 40 19 0
-0.337213 -0.386525 3.8769 40 31 20
-0.337213 -0.386525 3.8769 40 31 20
0.00580137 -0.197298 3.77661 214 188 137
0.197438 -0.0211053 3.57256 25 11 0
0.45363 -0.0221513 3.46755 37 27 16
0.138971 -0.0348697 3.63399 152 125 93
0.593913 -0.197134 3.38991 35 19 0
0.586765 -0.213292 3.39995 47 31 0
-0.104991 -0.182037 3.88247 52 25 1
-0.321412 0.17158 4.98053 146 123 95
-0.371943 -0.032846 4.12845 38 20 1
-0.371943 -0.032846 4.12845 38 20 1
0.445521 -0.104208 3.43707 195 167 117
