ply
format ascii 1.0
element vertex 41
property float x
property float y
property float z
property uchar red
property uchar green
property uchar blue
end_header
1.46667 -2.01939 29.8875 227 196 136
0.611694 -2.10919 31.2667 26 2 0
2.80927 -1.57889 26.6823 197 169 119
0.848649 -0.582463 26.8574 153 126 97
-3.85935 -4.24556 37.6527 218 195 135
-0.990543 -1.72147 34.6734 54 27 1
2.04211 -1.04981 25.8019 247 215 160
3.20157 -2.42191 26.8869 190 165 109
3.09382 1.43911 50.3591 167 139 100
2.85125 -1.85386 27.5061 81 52 13
1.20259 -0.504498 25.3978 24 12 0
-1.22701 -2.03839 33.6989 81 47 2
-1.32716 -1.9969 34.026 215 183 126
3.57273 -1.17543 23.2874 174 150 100
-1.42684 -1.9629 34.4378 59 29 0
3.57273 -1.17543 23.2874 174 150 100
-0.450505 -1.83834 32.7165 32 14 0
-0.450505 -1.83834 32.7165 32 14 0
-0.450505 -1.83834 32.7165 32 14 0
2.20253 -1.67579 27.4867 34 15 2
2.93559 -2.02037 27.8365 201 171 116
3.08535 -2.20764 27.771 174 155 114
1.39041 -0.380527 25.2296 32 19 1
5.16756 -0.0572708 35.4524 168 146 109
2.38364 -1.07722 26.1532 224 191 134
4.76744 0.0507156 35.2348 160 137 105
4.55314 0.345367 37.7414 154 134 102
4.61213 0.59772 40.3613 167 144 114
2.05708 -0.672815 24.7642 45 26 2
2.05708 -0.672815 24.7642 45 26 2
3.41286 -0.860254 23.9426 41 23 1
1.74711 -0.404329 24.5523 235 206 161
1.74711 -0.404329 24.5523 235 206 161
2.96804 -1.65181 25.0229 207 182 133
-1.54575 -1.8136 35.7497 57 32 1
2.71345 -1.04258 23.3395 200 173 124
3.292 -1.77125 26.7761 64 38 7
2.81224 -0.318569 25.4942 62 43 20
3.42475 1.52415 51.5266 73 47 21
2.36935 -0.543354 24.512 58 41 19
-1.05066 -0.0704934 52.94 8 4 0
