ply
format ascii 1.0
element vertex 43
property float x
property float y
property float z
property uchar red
property uchar green
property uchar blue
end_header
0.595252 -0.186725 6.2348 238 215 170
-0.42996 0.188574 6.41215 49 27 7
-0.42996 0.188574 6.41215 49 27 7
-0.132221 -0.340745 6.58481 49 18 0
-0.132221 -0.340745 6.58481 49 18 0
-0.179733 -0.374649 6.60046 113 84 47
-0.253517 0.285559 6.7129 33 14 0
-0.253517 0.285559 6.7129 33 14 0
-0.371453 0.186084 6.45952 203 171 130
-0.371453 0.186084 6.45952 203 171 130
0.841853 0.106582 6.66933 160 138 105
0.889793 -0.519146 6.50364 150 134 100
0.889793 -0.519146 6.50364 150 134 100
1.00709 0.0288874 6.67529 174 150 105
0.935267 0.0461974 6.65328 181 156 111
-0.574626 0.355048 6.25329 166 137 97
-0.227718 0.280155 6.72034 197 165 121
-0.574626 0.355048 6.25329 166 137 97
-0.227718 0.280155 6.72034 197 165 121
0.168447 0.310726 6.79411 48 30 4
-0.428195 -0.18425 6.28296 94 62 20
-0.2273 0.32983 6.70932 65 41 13
1.01056 -0.458366 6.30929 135 121 83
-0.624926 0.157457 6.03393 26 14 1
-0.624926 0.157457 6.03393 26 14 1
1.04804 -0.152955 6.40294 169 152 114
0.11877 0.352588 6.81604 158 129 90
-0.0618231 0.321411 6.75038 54 31 5
-0.0618231 0.321411 6.75038 54 31 5
0.0640668 -0.33945 6.57823 81 49 3
-0.101474 0.36325 6.76031 164 134 92
1.04149 -0.0560189 6.63438 176 149 113
0.869001 -0.214614 6.2196 95 72 36
0.869001 -0.214614 6.2196 95 72 36
0.759558 -0.141896 6.23146 41 28 10
0.759558 -0.141896 6.23146 41 28 10
-0.152446 0.0374034 6.6534 73 45 9
0.901165 -0.3027 6.33092 44 21 2
-0.0717238 0.272265 6.75671 180 146 103
0.892318 -0.23831 6.23381 192 163 115
-0.052687 0.273096 6.7555 188 152 105
-0.148785 0.00589933 6.63965 58 33 3
0.726716 -0.107155 6.26316 61 42 14
